PathFileType	4	(X/Y/Z)	/Users/niels/Desktop/University/Third Semester/Perception and Action/Exam/Gymnastics Motion Tracking/Code for Gym Tracking/Analyzed Data/Webcam_Backflip/id2007_1_pure_Sports2D/id2007_1_pure_Sports2D_px_person00.trc
DataRate	CameraRate	NumFrames	NumMarkers	Units	OrigDataRate	OrigDataStartFrame	OrigNumFrames
29.795918367346935	29.795918367346935	9	22	m	29.795918367346935	0	147
Frame#	Time	Hip			RHip			RKnee			RAnkle			RBigToe			RSmallToe			RHeel			LHip			LKnee			LAnkle			LBigToe			LSmallToe			LHeel			Neck			Head			Nose			RShoulder			RElbow			RWrist			LShoulder			LElbow			LWrist		
		X1	Y1	Z1	X2	Y2	Z2	X3	Y3	Z3	X4	Y4	Z4	X5	Y5	Z5	X6	Y6	Z6	X7	Y7	Z7	X8	Y8	Z8	X9	Y9	Z9	X10	Y10	Z10	X11	Y11	Z11	X12	Y12	Z12	X13	Y13	Z13	X14	Y14	Z14	X15	Y15	Z15	X16	Y16	Z16	X17	Y17	Z17	X18	Y18	Z18	X19	Y19	Z19	X20	Y20	Z20	X21	Y21	Z21	X22	Y22	Z22
0	0.0	0.9825019924243368	-0.7451437529309051	0.0	0.9273614935613566	-0.7555913376148348	0.0	0.9588627892236171	-1.0576577296910465	0.0			0.0			0.0			0.0			0.0	1.0350175774227357	-0.7634938423781389	0.0	1.0140066182420748	-1.0550241893940129	0.0	1.1223947753906245	-1.0779008789062505	0.0			0.0			0.0			0.0	1.008731208733768	-0.20690168559821082	0.0	1.0612856252768852	-0.009975886879235656	0.0	1.0665073113020305	-0.08088470927032645	0.0	0.8721902380074322	-0.2672851013902606	0.0	0.8170875667122683	-0.553478741760852	0.0	0.8355428403731763	-0.8317927257468	0.0	1.11376775587455	-0.32506915706169165	0.0	1.134789047802472	-0.5561375131521024	0.0	1.1505220229441242	-0.7714453494970569	0.0
1	0.03356164383561644	0.9824956420068269	-0.7476617268654303	0.0	0.9257892507112694	-0.7605855228084525	0.0	0.952183993204437	-1.05730574687526	0.0			0.0			0.0			0.0			0.0	1.036724176506641	-0.7662610711614687	0.0	1.0148324215015174	-1.0543730072122777	0.0	1.1223947753906245	-1.0779008789062505	0.0			0.0			0.0			0.0	1.0032792106369437	-0.20911092732562828	0.0	1.0515526377166136	-0.012149990614540166	0.0	1.059229378845636	-0.08315660512502979	0.0	0.8686247862896121	-0.2711617871807977	0.0	0.8141450076629572	-0.5572809786557872	0.0	0.8296650873771856	-0.8339704618431948	0.0	1.1077637575132269	-0.32473068691872337	0.0	1.1296840322545951	-0.5552930870462773	0.0	1.1453347063672665	-0.7667317313880101	0.0
2	0.06712328767123288	0.9822026372734224	-0.7502632226604368	0.0	0.9241512241624149	-0.7654266052290855	0.0	0.9443659326780706	-1.0571195079851605	0.0			0.0			0.0			0.0			0.0	1.0377195329058937	-0.7691093464764652	0.0	1.0153487830644712	-1.0542178671867362	0.0	1.1223947753906245	-1.0779008789062505	0.0			0.0			0.0			0.0	0.9976745425990795	-0.21106412168620575	0.0	1.0420721951323544	-0.013948220006340403	0.0	1.0521438794103322	-0.08507277849855885	0.0	0.8652527872997956	-0.2747331409958148	0.0	0.8118095325878674	-0.5612357465117397	0.0	0.8245292723979873	-0.8367325861401982	0.0	1.1012670720993742	-0.32445914896853745	0.0	1.1241213563822605	-0.5541906653690772	0.0	1.1401530347940274	-0.7620277157580704	0.0
3	0.10068493150684932	0.9813705102223379	-0.7528590916725678	0.0	0.922335868619682	-0.7699175143831929	0.0	0.9347083079692367	-1.057164361340126	0.0			0.0			0.0			0.0			0.0	1.037385024785813	-0.7719926408207661	0.0	1.0154831711727574	-1.0547183218733764	0.0	1.1223947753906245	-1.0779008789062505	0.0			0.0			0.0			0.0	0.9917718357083761	-0.2124921081067605	0.0	1.033074728492594	-0.015232056544761481	0.0	1.0452952018766035	-0.08648971604886681	0.0	0.862140769689486	-0.27789411774908024	0.0	0.8105942147318964	-0.5654686803122506	0.0	0.8208525785095602	-0.840381993121247	0.0	1.0938484103668316	-0.3240867348748157	0.0	1.1176850154261975	-0.5527469974132473	0.0	1.1350063746286694	-0.7573325613893813	0.0
4	0.13424657534246576	0.9799233573338623	-0.75540727505463	0.0	0.9201867177738993	-0.7741528442724351	0.0	0.9232937479104479	-1.0574015848646232	0.0			0.0			0.0			0.0			0.0	1.0355516093749328	-0.7749931830078641	0.0	1.0155748539778728	-1.055682048046726	0.0	1.1223947753906245	-1.0779008789062505	0.0			0.0			0.0			0.0	0.98559675771014	-0.2132789540786661	0.0	1.0246599267573393	-0.016145055392848776	0.0	1.038691001658282	-0.0875084756038759	0.0	0.8592893455643729	-0.2807482009195183	0.0	0.8107922955126448	-0.5699861821066724	0.0	0.8192279300782669	-0.8447584335556706	0.0	1.085377192870317	-0.3233785880411674	0.0	1.1102090150509027	-0.5511036661813976	0.0	1.1299240921622276	-0.7526099863361629	0.0
5	0.1678082191780822	0.977841576777581	-0.7581543917423204	0.0	0.9173631202792213	-0.7785868014085321	0.0	0.9109103101103405	-1.0577298878533519	0.0			0.0			0.0			0.0			0.0	1.032528647428909	-0.7784427824202794	0.0	1.016305933544889	-1.0567995425977126	0.0	1.1223947753906245	-1.0779008789062505	0.0			0.0			0.0			0.0	0.9793883998292797	-0.2135943893930003	0.0	1.0167985758868072	-0.016910315508585745	0.0	1.032452703602475	-0.08833580666785344	0.0	0.8566825616435023	-0.28346964837792965	0.0	0.8124285229966853	-0.5745459066942624	0.0	0.8201068675585436	-0.8492715976165452	0.0	1.0761381763632611	-0.3223435718069704	0.0	1.1017805491168697	-0.5495342327297629	0.0	1.124866435916074	-0.7477549341975639	0.0
6	0.20136986301369864	0.9749718560745639	-0.7614093171463701	0.0	0.9133642880331534	-0.7833741251061683	0.0	0.8986177517627006	-1.0580893398327231	0.0			0.0			0.0			0.0			0.0	1.0287183139709726	-0.7824056680585144	0.0	1.0183776930973507	-1.057927105694012	0.0	1.1223947753906245	-1.0779008789062505	0.0			0.0			0.0			0.0	0.9734115853643648	-0.21373358064428064	0.0	1.0096183923998756	-0.017628040531936676	0.0	1.0267391177334295	-0.08914624292297624	0.0	0.8542380551361279	-0.2861201453730618	0.0	0.8152488103451514	-0.5787161386029421	0.0	0.8237834853203259	-0.8531991570095535	0.0	1.0667200846079294	-0.3212576165975015	0.0	1.0925842439349258	-0.5483045485067356	0.0	1.119762701988742	-0.7427275323478041	0.0
7	0.23493150684931507	0.9710400673673772	-0.7651284900113817	0.0	0.9077064478204058	-0.7879016986227111	0.0	0.8873939222132913	-1.0584916229768135	0.0			0.0			0.0			0.0			0.0	1.024309844091139	-0.7863050397077034	0.0	1.0221525249478596	-1.0591008241155746	0.0	1.1223947753906245	-1.0779008789062505	0.0			0.0			0.0			0.0	0.9677653228492861	-0.2138687533861845	0.0	1.0034852758157287	-0.018262925418828273	0.0	1.021538216993606	-0.09007759977448607	0.0	0.8518252080780615	-0.2885422957895114	0.0	0.8187872190454614	-0.5821969587949586	0.0	0.8304306204574116	-0.8560868192207134	0.0	1.057718869434357	-0.32041906528539776	0.0	1.082872359962229	-0.5475127058920414	0.0	1.1145726635808455	-0.7377013199513462	0.0
8	0.2684931506849315	0.965835647444087	-0.7687807358980053	0.0	0.9001198819408149	-0.7911562416137893	0.0	0.8779612134839061	-1.0589426942247933	0.0			0.0			0.0			0.0			0.0	1.0193314245868987	-0.789317430184176	0.0	1.0274033746958615	-1.0602927317449766	0.0	1.1223947753906245	-1.0779008789062505	0.0			0.0			0.0			0.0	0.9623890876315586	-0.2140150715556318	0.0	0.9986514608088384	-0.018719397152071583	0.0	1.0166680903416268	-0.09124898541109638	0.0	0.8493563092049355	-0.2904635756917589	0.0	0.8225668687299411	-0.5849712463640719	0.0	0.8400650101271138	-0.8578818095768708	0.0	1.049445222468612	-0.31994911991152036	0.0	1.0730690585932643	-0.5470296745768372	0.0	1.1092735822691309	-0.7329831627931696	0.0
